<svg width="14" height="13" viewBox="0 0 14 13" fill="none" xmlns="http://www.w3.org/2000/svg">
<path d="M6.72225 12.1482C6.85225 12.2882 7.02225 12.3582 7.20225 12.3582C7.36225 12.3582 7.51225 12.3082 7.64225 12.1882L13.6822 6.69817C13.9922 6.41817 13.9922 5.93817 13.6822 5.65817L7.64225 0.168174C7.37225 -0.0718255 6.96225 -0.0518256 6.72225 0.208174C6.48225 0.478174 6.49225 0.888175 6.76225 1.12817L11.5979 5.52817H0.702246C0.343261 5.52817 0.0522461 5.81919 0.0522461 6.17817C0.0522461 6.53716 0.343261 6.82817 0.702246 6.82817H11.5979L6.76225 11.2282C6.50225 11.4682 6.48225 11.8782 6.72225 12.1482Z" fill="#3A85FF"/>
</svg>
