<svg width="13" height="11" viewBox="0 0 13 11" fill="none" xmlns="http://www.w3.org/2000/svg">
<path d="M6.61875 10.1235C6.51042 10.2401 6.36875 10.2985 6.21875 10.2985C6.08542 10.2985 5.96042 10.2568 5.85208 10.1568L0.81875 5.58181C0.560417 5.34848 0.560417 4.94848 0.81875 4.71514L5.85208 0.140145C6.07708 -0.0598546 6.41875 -0.043188 6.61875 0.173479C6.81875 0.398479 6.81042 0.740145 6.58542 0.940145L2.55571 4.60681H11.6354C11.9346 4.60681 12.1771 4.84932 12.1771 5.14848C12.1771 5.44763 11.9346 5.69014 11.6354 5.69014H2.55571L6.58542 9.35681C6.80208 9.55681 6.81875 9.89848 6.61875 10.1235Z" fill="#9A9EA5"/>
</svg>
