<svg width="34" height="35" viewBox="0 0 34 35" fill="none" xmlns="http://www.w3.org/2000/svg">
<path d="M18.4707 0.461024C17.5867 -0.100129 16.4579 -0.0996008 15.5745 0.462385L2.16877 8.98997C-0.110598 10.4399 0.916476 13.9681 3.61793 13.9681H30.4572C33.16 13.9681 34.1861 10.4371 31.9042 8.98861L18.4707 0.461024Z" fill="#0062FF"/>
<path d="M17.0375 16.545C17.7555 16.545 18.3375 17.127 18.3375 17.845V27.61C18.3375 28.3279 17.7555 28.91 17.0375 28.91C16.3196 28.91 15.7375 28.3279 15.7375 27.61V17.845C15.7375 17.127 16.3196 16.545 17.0375 16.545Z" fill="#0062FF"/>
<path d="M1.01135 32.8002C1.01135 32.0822 1.59338 31.5002 2.31135 31.5002H31.7637C32.4817 31.5002 33.0637 32.0822 33.0637 32.8002C33.0637 33.5181 32.4817 34.1002 31.7637 34.1002H2.31135C1.59338 34.1002 1.01135 33.5181 1.01135 32.8002Z" fill="#0062FF"/>
<path d="M9.60305 17.845C9.60305 17.127 9.02102 16.545 8.30305 16.545C7.58508 16.545 7.00305 17.127 7.00305 17.845V27.61C7.00305 28.3279 7.58508 28.91 8.30305 28.91C9.02102 28.91 9.60305 28.3279 9.60305 27.61V17.845Z" fill="#0062FF"/>
<path d="M25.7722 16.545C26.4901 16.545 27.0722 17.127 27.0722 17.845V27.61C27.0722 28.3279 26.4901 28.91 25.7722 28.91C25.0542 28.91 24.4722 28.3279 24.4722 27.61V17.845C24.4722 17.127 25.0542 16.545 25.7722 16.545Z" fill="#0062FF"/>
</svg>
