<svg width="22" height="23" viewBox="0 0 22 23" fill="none" xmlns="http://www.w3.org/2000/svg">
<path d="M11.9553 0.307278C11.366 -0.0668237 10.6135 -0.0664717 10.0246 0.308186L1.08743 5.99324C-0.432151 6.95987 0.252565 9.312 2.05354 9.312H19.9464C21.7483 9.312 22.4323 6.95801 20.9111 5.99234L11.9553 0.307278Z" fill="#0062FF"/>
<path d="M10.9999 11.0299C11.4786 11.0299 11.8666 11.4179 11.8666 11.8966V18.4066C11.8666 18.8852 11.4786 19.2732 10.9999 19.2732C10.5213 19.2732 10.1333 18.8852 10.1333 18.4066V11.8966C10.1333 11.4179 10.5213 11.0299 10.9999 11.0299Z" fill="#0062FF"/>
<path d="M0.315816 21.8667C0.315816 21.3881 0.703836 21 1.18248 21H20.8174C21.296 21 21.6841 21.3881 21.6841 21.8667C21.6841 22.3453 21.296 22.7334 20.8174 22.7334H1.18248C0.703836 22.7334 0.315816 22.3453 0.315816 21.8667Z" fill="#0062FF"/>
<path d="M6.04362 11.8966C6.04362 11.4179 5.6556 11.0299 5.17695 11.0299C4.6983 11.0299 4.31028 11.4179 4.31028 11.8966V18.4066C4.31028 18.8852 4.6983 19.2732 5.17695 19.2732C5.6556 19.2732 6.04362 18.8852 6.04362 18.4066V11.8966Z" fill="#0062FF"/>
<path d="M16.823 11.0299C17.3017 11.0299 17.6897 11.4179 17.6897 11.8966V18.4066C17.6897 18.8852 17.3017 19.2732 16.823 19.2732C16.3444 19.2732 15.9564 18.8852 15.9564 18.4066V11.8966C15.9564 11.4179 16.3444 11.0299 16.823 11.0299Z" fill="#0062FF"/>
</svg>
