<svg width="24" height="24" viewBox="0 0 24 24" fill="none" xmlns="http://www.w3.org/2000/svg">
<path fill-rule="evenodd" clip-rule="evenodd" d="M24 10.195C24 10.7105 23.5821 11.1284 23.0667 11.1284H13.8029C13.2874 11.1284 12.8696 10.7105 12.8696 10.195V0.933332C12.8696 0.417867 13.2874 0 13.8029 0H20C22.2091 0 24 1.79086 24 4V10.195ZM16.2415 5.84982C16.2415 5.37117 16.6295 4.98315 17.1081 4.98315H19.7748C20.2535 4.98315 20.6415 5.37117 20.6415 5.84982C20.6415 6.32847 20.2535 6.71649 19.7748 6.71649H17.1081C16.6295 6.71649 16.2415 6.32847 16.2415 5.84982Z" fill="#0062FF"/>
<path fill-rule="evenodd" clip-rule="evenodd" d="M13.8029 24C13.2874 24 12.8696 23.5821 12.8696 23.0667V13.795C12.8696 13.2796 13.2874 12.8617 13.8029 12.8617H23.0667C23.5821 12.8617 24 13.2796 24 13.795V20C24 22.2091 22.2091 24 20 24H13.8029ZM17.1081 16.035C16.6295 16.035 16.2415 16.423 16.2415 16.9017C16.2415 17.3803 16.6295 17.7683 17.1081 17.7683H19.7748C20.2535 17.7683 20.6415 17.3803 20.6415 16.9017C20.6415 16.423 20.2535 16.035 19.7748 16.035H17.1081ZM16.2415 19.6165C16.2415 19.1379 16.6295 18.7498 17.1081 18.7498H19.7748C20.2535 18.7498 20.6415 19.1379 20.6415 19.6165C20.6415 20.0952 20.2535 20.4832 19.7748 20.4832H17.1081C16.6295 20.4832 16.2415 20.0952 16.2415 19.6165Z" fill="#0062FF"/>
<path fill-rule="evenodd" clip-rule="evenodd" d="M10.2029 24C10.7184 24 11.1362 23.5821 11.1362 23.0667V13.795C11.1362 13.2796 10.7184 12.8617 10.2029 12.8617H0.933333C0.417868 12.8617 0 13.2796 0 13.795V20C0 22.2091 1.79086 24 4 24H10.2029ZM7.61224 20.343C7.27378 20.6815 6.72504 20.6815 6.38659 20.343L5.58513 19.5415L4.78374 20.3429C4.44529 20.6814 3.89655 20.6814 3.55809 20.3429C3.21964 20.0045 3.21964 19.4557 3.55809 19.1173L4.35948 18.3159L3.55816 17.5146C3.21971 17.1761 3.21971 16.6274 3.55816 16.2889C3.89662 15.9505 4.44536 15.9505 4.78381 16.2889L5.58513 17.0902L6.38652 16.2889C6.72497 15.9504 7.27372 15.9504 7.61217 16.2889C7.95063 16.6273 7.95063 17.1761 7.61217 17.5145L6.81078 18.3159L7.61224 19.1174C7.95069 19.4558 7.95069 20.0046 7.61224 20.343Z" fill="#0062FF"/>
<path fill-rule="evenodd" clip-rule="evenodd" d="M0.933334 11.1284C0.417868 11.1284 0 10.7105 0 10.195V4C0 3.86193 0.00699558 3.72549 0.0206516 3.59102C0.225492 1.574 1.92893 0 4 0H10.2029C10.7184 0 11.1362 0.417868 11.1362 0.933333V10.195C11.1362 10.7105 10.7184 11.1284 10.2029 11.1284H0.933334ZM4.71853 7.84982C4.71853 8.32847 5.10655 8.71649 5.5852 8.71649C6.06384 8.71649 6.45187 8.32847 6.45187 7.84982V6.71639H7.5852C8.06385 6.71639 8.45187 6.32837 8.45187 5.84972C8.45187 5.37108 8.06385 4.98306 7.5852 4.98306H6.45187V3.84982C6.45187 3.37117 6.06385 2.98315 5.5852 2.98315C5.10655 2.98315 4.71853 3.37117 4.71853 3.84982V4.98306H3.5852C3.10655 4.98306 2.71853 5.37108 2.71853 5.84972C2.71853 6.32837 3.10655 6.71639 3.5852 6.71639H4.71853V7.84982Z" fill="#0062FF"/>
</svg>
