<svg width="25" height="20" viewBox="0 0 25 20" fill="none" xmlns="http://www.w3.org/2000/svg">
<path fill-rule="evenodd" clip-rule="evenodd" d="M0.197266 0.950928C0.197266 0.472359 0.585223 0.0844012 1.06379 0.0844005L15.1875 0.0843811C16.5871 0.0843811 17.7217 1.21894 17.7217 2.6185H18.7232C20.3499 2.6185 21.8167 3.59777 22.4403 5.10019L23.996 8.848C24.1991 9.33709 24.3036 9.86143 24.3036 10.391V12.7167C24.3036 13.6799 23.5227 14.4608 22.5595 14.4608L3.38454 14.4608C2.42725 14.4608 1.6512 13.6847 1.6512 12.7274V8.02316C1.6512 7.45431 2.11235 6.99316 2.68121 6.99316H4.19553C4.67194 6.99316 5.05815 6.60695 5.05815 6.13054C5.05815 5.65413 4.67194 5.26793 4.19553 5.26793H2.51382C2.03741 5.26793 1.6512 4.88172 1.6512 4.40531C1.6512 3.9289 2.03741 3.54269 2.51382 3.54269H6.78204C7.25846 3.54269 7.64466 3.15648 7.64466 2.68007C7.64466 2.20366 7.25846 1.81746 6.78205 1.81746H1.06379C0.585224 1.81746 0.197266 1.4295 0.197266 0.950928ZM17.6077 5.27175C17.6077 4.7531 18.0282 4.33266 18.5468 4.33266H19.2111C19.9155 4.33266 20.5509 4.75651 20.8214 5.40699L21.8901 7.97688C22.1473 8.59537 21.6929 9.27658 21.023 9.27658H18.5468C18.0282 9.27658 17.6077 8.85613 17.6077 8.33749V5.27175Z" fill="#0062FF"/>
<path d="M9.36409 17.3248C9.36409 18.4294 8.46866 19.3248 7.3641 19.3248C6.25953 19.3248 5.3641 18.4294 5.3641 17.3248C5.3641 16.2202 6.25953 15.3248 7.3641 15.3248C8.46866 15.3248 9.36409 16.2202 9.36409 17.3248Z" fill="#0062FF"/>
<path d="M20.5 17.3248C20.5 18.4294 19.6046 19.3248 18.5 19.3248C17.3954 19.3248 16.5 18.4294 16.5 17.3248C16.5 16.2202 17.3954 15.3248 18.5 15.3248C19.6046 15.3248 20.5 16.2202 20.5 17.3248Z" fill="#0062FF"/>
</svg>
