<svg width="24" height="24" viewBox="0 0 24 24" fill="none" xmlns="http://www.w3.org/2000/svg">
<path fill-rule="evenodd" clip-rule="evenodd" d="M5.126e-06 5.86573C3.21865e-06 5.07392 0.709363 4.47133 1.49818 4.54011C6.09185 4.94065 8.80141 3.87355 11.5234 2.80156C14.4878 1.6341 17.467 0.460822 22.9106 1.17111C23.5408 1.25333 24 1.79953 24 2.43502V15.7856C24 16.5934 23.2632 17.2013 22.4612 17.1045C17.4035 16.4945 14.5212 17.6214 11.6953 18.7262C8.8284 19.847 6.01952 20.9452 1.05621 20.1842C0.441173 20.0899 -3.57628e-07 19.5509 0 18.9286L5.126e-06 5.86573ZM16.1774 10.6959C16.1774 12.9808 14.3251 14.8331 12.0402 14.8331C9.75532 14.8331 7.90306 12.9808 7.90306 10.6959C7.90306 8.41106 9.75532 6.5588 12.0402 6.5588C14.3251 6.5588 16.1774 8.41106 16.1774 10.6959ZM21.069 5.32239C21.069 4.9634 20.778 4.67239 20.419 4.67239C20.06 4.67239 19.769 4.9634 19.769 5.32239V12.4984C19.769 12.8574 20.06 13.1484 20.419 13.1484C20.778 13.1484 21.069 12.8574 21.069 12.4984V5.32239ZM3.57579 8.2604C3.93477 8.2604 4.22579 8.55142 4.22579 8.9104V16.0864C4.22579 16.4454 3.93477 16.7364 3.57579 16.7364C3.2168 16.7364 2.92579 16.4454 2.92579 16.0864L2.92579 8.9104C2.92579 8.55142 3.2168 8.2604 3.57579 8.2604ZM23.2496 19.1888C17.6488 18.369 14.5148 19.5609 11.5497 20.7198L11.4578 20.7557C8.59821 21.8737 5.89783 22.9294 1.0268 22.1563C0.672254 22.1 0.339217 22.3418 0.282943 22.6964C0.226668 23.0509 0.468466 23.384 0.823012 23.4402C6.04252 24.2687 9.00823 23.1092 11.9327 21.9659L12.023 21.9306C14.9057 20.8038 17.7888 19.7033 23.0614 20.4751C23.4166 20.5271 23.7467 20.2813 23.7987 19.9261C23.8506 19.5709 23.6048 19.2408 23.2496 19.1888Z" fill="#0062FF"/>
</svg>
