<svg width="33" height="31" viewBox="0 0 33 31" fill="none" xmlns="http://www.w3.org/2000/svg">
<path fill-rule="evenodd" clip-rule="evenodd" d="M0.129883 6C0.129883 2.68629 2.81617 0 6.12988 0H26.1299C29.4436 0 32.1299 2.68629 32.1299 6V18C32.1299 21.3137 29.4436 24 26.1299 24H11.1849L4.35409 29.4646C2.6517 30.8266 0.129883 29.6145 0.129883 27.4344V6ZM9.12988 10C10.2345 10 11.1299 10.8954 11.1299 12C11.1299 13.1046 10.2345 14 9.12988 14C8.02531 14 7.12988 13.1046 7.12988 12C7.12988 10.8954 8.02531 10 9.12988 10ZM23.1299 10C24.2345 10 25.1299 10.8954 25.1299 12C25.1299 13.1046 24.2345 14 23.1299 14C22.0253 14 21.1299 13.1046 21.1299 12C21.1299 10.8954 22.0253 10 23.1299 10ZM16.1299 10C17.2345 10 18.1299 10.8954 18.1299 12C18.1299 13.1046 17.2345 14 16.1299 14C15.0253 14 14.1299 13.1046 14.1299 12C14.1299 10.8954 15.0253 10 16.1299 10Z" fill="#0062FF"/>
</svg>
