<svg width="24" height="24" viewBox="0 0 24 24" fill="none" xmlns="http://www.w3.org/2000/svg">
<path d="M7.93005 15.1653H6.06338V17.032H7.93005V15.1653Z" fill="#0062FF"/>
<path fill-rule="evenodd" clip-rule="evenodd" d="M22.1868 6.03327C23.3046 6.03327 23.3046 7.7666 22.1868 7.7666H20.3335V16.2667H22.1868C22.6655 16.2667 23.0535 16.6547 23.0535 17.1333C23.0535 17.612 22.6655 18 22.1868 18H20.3335V20C20.3335 22.2 18.5468 24 16.3335 24H4.33349C2.12016 24 0.333496 22.2133 0.333496 20V4.04663C0.333496 1.8333 2.12016 0.0466309 4.3335 0.0466309H16.3335C18.5468 0.0466309 20.3335 1.8333 20.3335 4.04663V6.03327H22.1868ZM9.48904 7.28909C9.80148 6.92648 9.7608 6.37925 9.39818 6.06681C9.03557 5.75438 8.48834 5.79506 8.17591 6.15767L6.6651 7.91113L5.7508 7.06222C5.40004 6.73654 4.85167 6.75687 4.52599 7.10764C4.20031 7.4584 4.22064 8.00676 4.57141 8.33245L6.14485 9.79337C6.31738 9.95357 6.54767 10.0367 6.78274 10.0236C7.01781 10.0105 7.23744 9.90233 7.39112 9.72397L9.48904 7.28909ZM11.5583 7.94081C11.5583 8.41945 11.9463 8.80747 12.4249 8.80747L15.4668 8.80746C15.9455 8.80746 16.3335 8.41944 16.3335 7.9408C16.3335 7.46215 15.9455 7.07413 15.4668 7.07413L12.4249 7.07414C11.9463 7.07414 11.5583 7.46216 11.5583 7.94081ZM11.5583 16.0986C11.5583 16.5773 11.9463 16.9653 12.4249 16.9653L15.4668 16.9653C15.9455 16.9653 16.3335 16.5773 16.3335 16.0986C16.3335 15.62 15.9455 15.232 15.4668 15.232L12.4249 15.232C11.9463 15.232 11.5583 15.62 11.5583 16.0986ZM6.06338 13.432C5.10609 13.432 4.33005 14.208 4.33005 15.1653V17.032C4.33005 17.9893 5.10609 18.7653 6.06338 18.7653H7.93005C8.88734 18.7653 9.66338 17.9893 9.66338 17.032V15.1653C9.66338 14.208 8.88734 13.432 7.93005 13.432H6.06338Z" fill="#0062FF"/>
</svg>
