<svg width="24" height="25" viewBox="0 0 24 25" fill="none" xmlns="http://www.w3.org/2000/svg">
<path d="M14.6794 4.52074C14.6794 6.46998 11.3961 8.05016 7.34603 8.05016C3.29594 8.05016 0.0126953 6.46998 0.0126953 4.52074C0.0126953 2.5715 3.29594 0.991333 7.34603 0.991333C11.3961 0.991333 14.6794 2.5715 14.6794 4.52074Z" fill="#0062FF"/>
<path d="M23.9337 13.4318C23.9337 15.381 20.6505 16.9612 16.6004 16.9612C12.5503 16.9612 9.26707 15.381 9.26707 13.4318C9.26707 11.4825 12.5503 9.90234 16.6004 9.90234C20.6505 9.90234 23.9337 11.4825 23.9337 13.4318Z" fill="#0062FF"/>
<path d="M9.46301 17.3566C9.76418 16.9845 10.3099 16.9271 10.6819 17.2282C11.0607 17.5349 13.0385 18.9525 16.5944 18.9525C20.1729 18.9525 22.0655 17.6364 22.5032 17.2512C22.8625 16.935 23.4101 16.97 23.7263 17.3293C24.0425 17.6886 24.0076 18.2363 23.6483 18.5525C22.9096 19.2025 20.6147 20.6858 16.5944 20.6858C12.5515 20.6858 10.2006 19.0687 9.59132 18.5755C9.21929 18.2743 9.16185 17.7286 9.46301 17.3566Z" fill="#0062FF"/>
<path d="M10.6819 20.7609C10.3099 20.4597 9.76418 20.5172 9.46301 20.8892C9.16185 21.2612 9.21929 21.8069 9.59132 22.1081C10.1894 22.5923 12.6115 24.3002 16.6656 24.3002C20.7121 24.3002 22.9314 22.7159 23.6483 22.0851C24.0076 21.7689 24.0425 21.2213 23.7263 20.8619C23.4101 20.5026 22.8625 20.4677 22.5032 20.7839C22.0437 21.1882 20.218 22.5668 16.6656 22.5668C13.121 22.5668 11.0719 21.0766 10.6819 20.7609Z" fill="#0062FF"/>
<path d="M1.42755 8.31727C1.05553 8.01611 0.509802 8.07355 0.208637 8.44558C-0.0925275 8.8176 -0.0350839 9.36333 0.336941 9.6645C0.946266 10.1578 3.29716 11.7748 7.34003 11.7748C7.81867 11.7748 8.20669 11.3868 8.20669 10.9082C8.20669 10.4295 7.81867 10.0415 7.34003 10.0415C3.78412 10.0415 1.8063 8.62388 1.42755 8.31727Z" fill="#0062FF"/>
<path d="M0.208637 11.9781C0.509802 11.6061 1.05553 11.5487 1.42755 11.8498C1.8175 12.1655 3.86658 13.6558 7.41127 13.6558C7.88991 13.6558 8.27793 14.0438 8.27793 14.5225C8.27793 15.0011 7.88991 15.3891 7.41127 15.3891C3.35718 15.3891 0.935065 13.6812 0.336941 13.197C-0.0350839 12.8959 -0.0925275 12.3502 0.208637 11.9781Z" fill="#0062FF"/>
<path d="M1.42755 15.504C1.05553 15.2029 0.509802 15.2603 0.208637 15.6323C-0.0925275 16.0044 -0.0350839 16.5501 0.336941 16.8513C0.935065 17.3355 3.35718 19.0433 7.41127 19.0433C7.88991 19.0433 8.27793 18.6553 8.27793 18.1767C8.27793 17.698 7.88991 17.31 7.41127 17.31C3.86658 17.31 1.8175 15.8197 1.42755 15.504Z" fill="#0062FF"/>
</svg>
