<svg width="22" height="19" viewBox="0 0 22 19" fill="none" xmlns="http://www.w3.org/2000/svg">
<path fill-rule="evenodd" clip-rule="evenodd" d="M20.7719 10.3846C22.2413 9.01699 22.3305 6.71948 20.9716 5.24199L17.5095 1.47774C16.1711 0.0225415 13.9174 -0.102469 12.4262 1.19578L10.9953 2.44163L9.69137 1.27933C8.18697 -0.0616542 5.88043 0.0703782 4.53888 1.57427L1.0669 5.46642C-0.275009 6.97071 -0.143365 9.27801 1.36093 10.6199L8.69861 17.1655C10.1097 18.4242 12.2484 18.3969 13.6268 17.1026L20.3551 10.7848L20.3484 10.7788L20.7719 10.3846ZM7.82117 5.20518L10.0069 3.30213L8.82634 2.24977C7.85776 1.38639 6.37273 1.4714 5.50899 2.43966L2.037 6.3318C1.17304 7.30032 1.25779 8.78584 2.22631 9.64981L3.7626 11.0203C5.10709 9.98444 7.03583 10.0002 8.36958 11.149L10.5979 13.0682C11.6543 13.9781 12.084 15.3915 11.7605 16.7054C12.1154 16.6066 12.4515 16.4229 12.737 16.1549L16.8969 12.2487L12.9532 8.33716C12.7167 8.10261 12.3412 8.08476 12.0836 8.29582L11.1071 9.09574C10.1059 9.9159 8.64869 9.85461 7.71989 8.95327C6.65007 7.9151 6.69685 6.18407 7.82117 5.20518ZM10.4086 16.6792C10.7638 15.7591 10.5066 14.7053 9.74947 14.0532L7.52119 12.134C6.72816 11.4509 5.60843 11.39 4.75997 11.91L9.564 16.1954C9.81623 16.4204 10.1046 16.5816 10.4086 16.6792ZM20.0148 6.12203C20.8897 7.07329 20.8322 8.55251 19.8862 9.43305L17.8319 11.3451L13.8687 7.41416C13.1592 6.71052 12.0327 6.65698 11.2598 7.29016L10.2833 8.09009C9.79316 8.49156 9.07988 8.46155 8.62523 8.02035C8.10155 7.51215 8.12445 6.66481 8.6748 6.18564L13.2799 2.17625C14.2399 1.34038 15.6909 1.42087 16.5526 2.35778L20.0148 6.12203Z" fill="white"/>
</svg>
