<svg width="18" height="18" viewBox="0 0 18 18" fill="none" xmlns="http://www.w3.org/2000/svg">
<path d="M1.5459 0.320125C1.20744 -0.0183294 0.658701 -0.0183294 0.320247 0.320125C-0.0182073 0.658579 -0.0182073 1.20732 0.320247 1.54578L7.7744 8.99993L0.454198 16.3201C0.115743 16.6586 0.115744 17.2073 0.454198 17.5458C0.792652 17.8842 1.34139 17.8842 1.67985 17.5458L9.00005 10.2256L16.3202 17.5458C16.6587 17.8842 17.2074 17.8842 17.5459 17.5458C17.8844 17.2073 17.8844 16.6586 17.5459 16.3201L10.2257 8.99993L17.6798 1.54578C18.0183 1.20732 18.0183 0.658579 17.6798 0.320125C17.3414 -0.0183294 16.7927 -0.0183294 16.4542 0.320125L9.00005 7.77428L1.5459 0.320125Z" fill="white"/>
</svg>
