<svg width="16" height="17" viewBox="0 0 16 17" fill="none" xmlns="http://www.w3.org/2000/svg">
<path d="M2.21885 7.25218C2.21885 7.07218 2.28885 6.90218 2.42885 6.77218C2.69885 6.53218 3.10885 6.55218 3.34885 6.81218L7.351 10.6386L7.351 0.65C7.351 0.291015 7.64201 0 8.001 0C8.35998 0 8.651 0.291015 8.651 0.65V10.5752L12.2988 6.73217C12.5388 6.46217 12.9488 6.45217 13.2188 6.69217C13.4788 6.93217 13.4988 7.34217 13.2588 7.61217L8.52099 12.63C8.24099 12.94 7.761 12.94 7.481 12.63L2.38885 7.69218C2.26885 7.56218 2.21885 7.41218 2.21885 7.25218Z" fill="#3A85FF"/>
<path d="M1.0001 14.85C0.641113 14.85 0.350098 15.141 0.350098 15.5C0.350098 15.859 0.641113 16.15 1.0001 16.15H15.0001C15.3591 16.15 15.6501 15.859 15.6501 15.5C15.6501 15.141 15.3591 14.85 15.0001 14.85H1.0001Z" fill="#3A85FF"/>
</svg>
