<svg width="35" height="35" viewBox="0 0 35 35" fill="none" xmlns="http://www.w3.org/2000/svg">
<path d="M18.7276 25.918C18.7276 21.6755 22.1668 18.2363 26.4093 18.2363C30.6518 18.2363 34.091 21.6755 34.091 25.918C34.091 30.1605 30.6518 33.5997 26.4093 33.5997C22.1668 33.5997 18.7276 30.1605 18.7276 25.918Z" fill="#0062FF"/>
<path d="M19.4664 14.9996C18.5474 14.9996 17.9695 14.009 18.4218 13.209L25.3648 0.92992C25.8242 0.117434 26.9945 0.117436 27.4539 0.929922L34.3969 13.209C34.8492 14.009 34.2713 14.9996 33.3523 14.9996L19.4664 14.9996Z" fill="#0062FF"/>
<path d="M7.61379 18.3433C8.08242 17.8747 8.84222 17.8747 9.31084 18.3433L16.1493 25.1818C16.618 25.6504 16.618 26.4102 16.1493 26.8788L9.31085 33.7173C8.84222 34.186 8.08242 34.186 7.61379 33.7173L0.7753 26.8788C0.306671 26.4102 0.306671 25.6504 0.7753 25.1818L7.61379 18.3433Z" fill="#0062FF"/>
<path d="M0.891047 1.59955C0.891047 0.936805 1.4283 0.399548 2.09105 0.399547L14.291 0.399545C14.9538 0.399545 15.491 0.936803 15.491 1.59955L15.491 13.7995C15.491 14.4623 14.9538 14.9995 14.291 14.9995L2.09105 14.9996C1.42831 14.9996 0.891049 14.4623 0.891049 13.7996L0.891047 1.59955Z" fill="#0062FF"/>
</svg>
