<svg width="44" height="45" viewBox="0 0 44 45" fill="none" xmlns="http://www.w3.org/2000/svg">
<path d="M23.0785 0.868328L22.6665 1.69231C22.4454 2.13454 21.8143 2.13454 21.5932 1.69231L21.1812 0.868329C20.9818 0.469388 21.2719 0 21.7179 0H22.5419C22.9879 0 23.278 0.469387 23.0785 0.868328Z" fill="#0062FF"/>
<path d="M20.2583 2.0662C20.5107 2.02242 20.7585 2.15534 20.8731 2.38453L21.5931 3.82453C21.8142 4.26676 22.4453 4.26676 22.6664 3.82453L23.3874 2.38272C23.5019 2.1537 23.7494 2.02076 24.0017 2.0644C24.8527 2.21157 25.7028 2.47083 26.1298 2.89781C27.0744 3.84239 26.2345 6.57141 25.2957 7.71379C25.1947 7.83673 25.0404 7.89781 24.8813 7.89781H19.3783C19.2192 7.89781 19.0649 7.83673 18.9639 7.71379C18.0251 6.57141 17.1852 3.84239 18.1298 2.89781C18.555 2.47257 19.4079 2.21368 20.2583 2.0662Z" fill="#0062FF"/>
<path d="M31.599 41.1103L22.1299 44.8979L12.6607 41.1103C12.3634 40.9914 12.2107 40.6598 12.3304 40.3629C13.4506 37.5853 16.0328 34.0769 18.7974 31.1901C18.8911 31.0922 18.9506 30.9656 18.9594 30.8303C19.1244 28.2922 17.653 26.9263 15.1623 27.2511C15.1623 28.3929 14.5364 31.0395 11.4199 31.0395C8.30339 31.0395 0.57666 27.2511 0.57666 16.898C0.57666 11.6384 2.01806 8.637 2.73481 7.46968C2.92658 7.15736 3.3423 7.14102 3.58381 7.4167C5.12015 9.17035 10.1168 14.8592 11.7115 16.4954C11.9377 16.7275 11.9705 17.1034 11.8049 17.382C10.0674 20.3045 12.4116 23.0535 14.8987 22.4779C17.2905 21.9244 18.0409 19.1426 17.3798 16.898C16.9183 15.3309 15.7954 13.9321 14.4344 13.0143C13.7707 13.2404 13.097 13.5034 12.6509 13.6834C12.4762 13.7539 12.3194 13.5741 12.4244 13.4177C12.6214 13.1239 12.9108 12.7364 13.273 12.3756C12.3205 11.9637 11.3159 11.793 10.3769 11.9505C10.2499 11.9719 10.1293 11.8768 10.1308 11.748C10.142 10.7482 10.2858 9.69797 12.1298 9.69797C12.4755 9.69797 12.8116 9.70897 13.1385 9.73045C13.186 9.29212 13.4362 8.89797 14.1298 8.89802L18.7133 8.89798C18.8813 8.89797 18.9663 9.08639 18.8484 9.20598C18.4872 9.57215 17.799 10.1812 16.9038 10.56C19.2104 11.4946 20.8689 13.1086 22.1299 15C23.3908 13.1086 25.0493 11.4946 27.3559 10.56C27.1852 10.4878 27.0219 10.4071 26.8671 10.3214C26.302 10.0085 25.8482 9.6279 25.5464 9.33898C25.4973 9.29199 25.4522 9.24743 25.4113 9.20598C25.2934 9.08639 25.3784 8.89797 25.5464 8.89798L30.1299 8.89802C30.5103 8.89799 30.7573 9.01654 30.9107 9.19593C31.0367 9.34354 31.0998 9.53275 31.1211 9.73045C31.448 9.70897 31.7842 9.69797 32.1299 9.69797C33.9739 9.69797 34.1177 10.7482 34.1289 11.748C34.1304 11.8768 34.0098 11.9719 33.8827 11.9505C32.9437 11.793 31.9392 11.9637 30.9867 12.3756C31.3053 12.693 31.5676 13.031 31.7603 13.3078C31.7866 13.3456 31.8116 13.3823 31.8353 13.4177C31.9403 13.5741 31.7835 13.7539 31.6088 13.6834L31.5027 13.6408C31.0854 13.4737 30.5096 13.2507 29.9317 13.0509L29.8253 13.0143C28.4643 13.9321 27.3414 15.3309 26.8799 16.898C26.2188 19.1426 26.9692 21.9244 29.361 22.4779C31.8481 23.0535 34.1923 20.3045 32.4548 17.382C32.2892 17.1034 32.322 16.7275 32.5482 16.4954C34.1429 14.8592 39.1395 9.17035 40.6759 7.4167C40.9174 7.14102 41.3331 7.15736 41.5249 7.46968C42.2416 8.637 43.683 11.6384 43.683 16.898C43.683 27.2511 35.9563 31.0395 32.8398 31.0395C29.7233 31.0395 29.0974 28.3929 29.0974 27.2511C26.6067 26.9263 25.1353 28.2922 25.3003 30.8303C25.3091 30.9656 25.3686 31.0922 25.4623 31.1901C28.2268 34.0769 30.8091 37.5853 31.9293 40.3629C32.049 40.6598 31.8963 40.9914 31.599 41.1103Z" fill="#0062FF"/>
</svg>
