<svg width="24" height="24" viewBox="0 0 24 24" fill="none" xmlns="http://www.w3.org/2000/svg">
<path d="M13.7 13.3458C13.7 13.5115 13.5657 13.6458 13.4 13.6458L10.5999 13.6458C10.4343 13.6458 10.2999 13.5115 10.2999 13.3458L10.2999 10.5457C10.2999 10.3801 10.4343 10.2457 10.5999 10.2457L13.4 10.2457C13.5657 10.2457 13.7 10.3801 13.7 10.5457V13.3458Z" fill="#5ECF70"/>
<path fill-rule="evenodd" clip-rule="evenodd" d="M11.35 2.94565V5.94565L9.65004 5.94575V3.94563C9.65004 3.58665 9.35902 3.29563 9.00004 3.29563C8.64105 3.29563 8.35004 3.58665 8.35004 3.94563V6.01635C7.21493 6.26708 6.3213 7.16073 6.0706 8.29585L4.00002 8.29585C3.64104 8.29585 3.35002 8.58686 3.35002 8.94585C3.35002 9.30484 3.64104 9.59585 4.00002 9.59585H6.00001L6.00001 11.2958L3.00004 11.2959C2.64105 11.2959 2.35004 11.5869 2.35004 11.9459C2.35004 12.3048 2.64105 12.5958 3.00004 12.5958H6.00001L6.00001 14.2958H4.00002C3.64104 14.2958 3.35002 14.5869 3.35002 14.9459C3.35002 15.3048 3.64104 15.5958 4.00002 15.5958H6.07064C6.3214 16.7309 7.215 17.6244 8.35004 17.8752V19.9457C8.35004 20.3046 8.64105 20.5957 9.00004 20.5957C9.35902 20.5957 9.65004 20.3046 9.65004 19.9457L9.65004 17.9458H11.35V20.9457C11.35 21.3046 11.6411 21.5957 12 21.5957C12.359 21.5957 12.65 21.3046 12.65 20.9457V17.9458H14.35V19.9457C14.35 20.3046 14.6411 20.5957 15 20.5957C15.359 20.5957 15.65 20.3046 15.65 19.9457V17.8751C16.7851 17.6244 17.6786 16.7309 17.9294 15.5958H20C20.359 15.5958 20.65 15.3048 20.65 14.9458C20.65 14.5869 20.359 14.2958 20 14.2958L18 14.2959L18 12.5958H21C21.359 12.5958 21.65 12.3048 21.65 11.9458C21.65 11.5869 21.359 11.2958 21 11.2958H18V9.59585L20 9.59585C20.359 9.59585 20.65 9.30483 20.65 8.94585C20.65 8.58686 20.359 8.29585 20 8.29585L17.9294 8.29585C17.6787 7.16075 16.7851 6.26711 15.65 6.01636V3.94563C15.65 3.58665 15.359 3.29563 15 3.29563C14.6411 3.29563 14.35 3.58665 14.35 3.94563V5.94575L12.65 5.94565V2.94565C12.65 2.58667 12.359 2.29565 12 2.29565C11.6411 2.29565 11.35 2.58667 11.35 2.94565ZM15 14.3458C15 14.6772 14.7314 14.9458 14.4 14.9458H9.59994C9.26857 14.9458 8.99994 14.6772 8.99994 14.3458L8.99994 9.54574C8.99994 9.21437 9.26857 8.94574 9.59994 8.94574L14.4 8.94574C14.7314 8.94574 15 9.21437 15 9.54574V14.3458Z" fill="#5ECF70"/>
</svg>
