<svg width="24" height="24" viewBox="0 0 24 24" fill="none" xmlns="http://www.w3.org/2000/svg">
<path fill-rule="evenodd" clip-rule="evenodd" d="M22.1867 6.03314C23.3044 6.03314 23.3044 7.76648 22.1867 7.76648H20.3333V16.2665H22.1867C22.6653 16.2665 23.0533 16.6546 23.0533 17.1332C23.0533 17.6119 22.6653 17.9999 22.1867 17.9999H20.3333V19.9999C20.3333 22.1999 18.5467 23.9999 16.3333 23.9999H4.33333C2.12 23.9999 0.333336 22.2132 0.333336 19.9999V4.04651C0.333336 1.83318 2.12 0.0465088 4.33334 0.0465088H16.3333C18.5467 0.0465088 20.3333 1.83318 20.3333 4.04651V6.03314H22.1867ZM6.33334 8.30234C7.06972 8.30234 7.66667 7.70538 7.66667 6.969C7.66667 6.23262 7.06972 5.63567 6.33334 5.63567C5.59696 5.63567 5 6.23262 5 6.969C5 7.70538 5.59696 8.30234 6.33334 8.30234ZM14.6267 7.83577C15.1053 7.83577 15.4934 7.44775 15.4934 6.96911C15.4934 6.49046 15.1053 6.10244 14.6267 6.10244H10.3334C9.85471 6.10244 9.46669 6.49046 9.46669 6.96911C9.46669 7.44775 9.85471 7.83577 10.3334 7.83577H14.6267ZM15.5078 11.9999C15.5078 12.4786 15.1198 12.8666 14.6411 12.8666H10.3478C9.86916 12.8666 9.48114 12.4786 9.48114 11.9999C9.48114 11.5213 9.86916 11.1333 10.3478 11.1333H14.6411C15.1198 11.1333 15.5078 11.5213 15.5078 11.9999ZM14.6267 17.9724C15.1053 17.9724 15.4934 17.5844 15.4934 17.1058C15.4934 16.6271 15.1053 16.2391 14.6267 16.2391L10.3334 16.2391C9.85471 16.2391 9.46669 16.6271 9.46669 17.1058C9.46669 17.5844 9.85471 17.9724 10.3334 17.9724H14.6267ZM7.70114 11.9999C7.70114 12.7363 7.10418 13.3333 6.36781 13.3333C5.63142 13.3333 5.03447 12.7363 5.03447 11.9999C5.03447 11.2635 5.63142 10.6666 6.36781 10.6666C7.10418 10.6666 7.70114 11.2635 7.70114 11.9999ZM7.70114 17.0699C7.70114 17.8063 7.10418 18.4033 6.36781 18.4033C5.63142 18.4033 5.03447 17.8063 5.03447 17.0699C5.03447 16.3336 5.63142 15.7366 6.36781 15.7366C7.10418 15.7366 7.70114 16.3336 7.70114 17.0699Z" fill="#0062FF"/>
</svg>
