<svg width="33" height="34" viewBox="0 0 33 34" fill="none" xmlns="http://www.w3.org/2000/svg">
<path d="M19.9152 24.2256C22.5533 24.8714 24.6263 27.0485 25.0588 29.8355C25.2514 31.0767 26.32 31.9922 27.576 31.9922H29.8912C31.3272 31.9922 32.4912 30.8281 32.4912 29.3922V2.60757C32.4912 1.17163 31.3272 0.00756836 29.8912 0.00756836H27.5869C26.3249 0.00756836 25.2514 0.928023 25.0588 2.17532C24.6272 4.97061 22.5524 7.15619 19.9092 7.81026C19.1844 7.98962 18.5917 8.58996 18.5917 9.33662V22.6973C18.5917 23.4462 19.1878 24.0475 19.9152 24.2256Z" fill="#0062FF"/>
<path fill-rule="evenodd" clip-rule="evenodd" d="M0.491211 18.0071C0.491211 21.0697 2.78586 23.5964 5.7497 23.9617L5.7509 23.9681H14.611C15.3842 23.9681 16.011 23.3413 16.011 22.5681V9.40708C16.011 8.63388 15.3842 8.00709 14.611 8.00709H6.49121C3.1775 8.00709 0.491211 10.6934 0.491211 14.0071V18.0071ZM7.44127 16C7.44127 14.9004 8.3367 14 9.44127 14C10.5458 14 11.4413 14.9004 11.4413 16C11.4413 17.0996 10.5458 18 9.44127 18C8.3367 18 7.44127 17.0996 7.44127 16Z" fill="#0062FF"/>
<path d="M16.011 29.4148V27.9681C16.011 27.1949 15.3842 26.5681 14.611 26.5681H9.81499C8.93769 26.5681 8.27655 27.3657 8.43928 28.2278L8.82391 30.2653C9.23279 32.4313 10.666 33.9999 12.8703 33.9999C15.4026 33.9999 16.011 31.9471 16.011 29.4148Z" fill="#0062FF"/>
</svg>
