<svg width="22" height="25" viewBox="0 0 22 25" fill="none" xmlns="http://www.w3.org/2000/svg">
<path d="M6.99992 11.7243C7.51538 11.7243 7.93325 11.3064 7.93325 10.7909C7.93325 10.2755 7.51538 9.85759 6.99992 9.85759C6.48445 9.85759 6.06659 10.2755 6.06659 10.7909C6.06659 11.3064 6.48445 11.7243 6.99992 11.7243Z" fill="#0062FF"/>
<path d="M15.0031 18.1424C15.5186 18.1424 15.9365 17.7245 15.9365 17.2091C15.9365 16.6936 15.5186 16.2757 15.0031 16.2757C14.4877 16.2757 14.0698 16.6936 14.0698 17.2091C14.0698 17.7245 14.4877 18.1424 15.0031 18.1424Z" fill="#0062FF"/>
<path fill-rule="evenodd" clip-rule="evenodd" d="M5.85322 0.600006C6.33187 0.600006 6.71989 0.988026 6.71989 1.46667V3.32001H10.1332V1.46667C10.1332 0.988026 10.5213 0.600006 10.9999 0.600006C11.4786 0.600006 11.8666 0.988026 11.8666 1.46667V3.32001H15.2666V1.46667C15.2666 0.988026 15.6546 0.600006 16.1332 0.600006C16.6119 0.600006 16.9999 0.988026 16.9999 1.46667V3.32001H17.6666C19.8666 3.32001 21.6666 5.10668 21.6666 7.32001V20.6667C21.6666 22.88 19.8799 24.6667 17.6666 24.6667H4.33325C2.11992 24.6667 0.333252 22.88 0.333252 20.6667V7.32001C0.333252 5.10668 2.11992 3.32001 4.33325 3.32001H4.98655V1.46667C4.98655 0.988026 5.37457 0.600006 5.85322 0.600006ZM6.99992 13.4576C8.47268 13.4576 9.66658 12.2637 9.66658 10.7909C9.66658 9.31817 8.47268 8.12426 6.99992 8.12426C5.52716 8.12426 4.33325 9.31817 4.33325 10.7909C4.33325 12.2637 5.52716 13.4576 6.99992 13.4576ZM15.6743 10.5384C16.0116 10.1989 16.0099 9.65016 15.6704 9.31279C15.3308 8.97541 14.7821 8.97716 14.4447 9.31669L6.43985 17.3727C6.10248 17.7122 6.10422 18.2609 6.44375 18.5983C6.78328 18.9357 7.33202 18.9339 7.6694 18.5944L15.6743 10.5384ZM15.0031 19.8757C16.4759 19.8757 17.6698 18.6818 17.6698 17.2091C17.6698 15.7363 16.4759 14.5424 15.0031 14.5424C13.5304 14.5424 12.3365 15.7363 12.3365 17.2091C12.3365 18.6818 13.5304 19.8757 15.0031 19.8757Z" fill="#0062FF"/>
</svg>
