<svg width="22" height="24" viewBox="0 0 22 24" fill="none" xmlns="http://www.w3.org/2000/svg">
<path fill-rule="evenodd" clip-rule="evenodd" d="M5.08617 6.62403C4.68495 3.09336 7.44671 0 11.0001 0C14.5535 0 17.3153 3.09336 16.914 6.62403L16.5647 9.69864C16.243 12.5288 13.8484 14.6667 11.0001 14.6667C8.15178 14.6667 5.75716 12.5288 5.43555 9.69864L5.08617 6.62403Z" fill="#0062FF"/>
<path fill-rule="evenodd" clip-rule="evenodd" d="M0.719091 22.2646C1.53249 18.6043 4.779 16 8.52859 16H13.4716C17.2212 16 20.4677 18.6043 21.2811 22.2646L21.4144 22.8642C21.5439 23.4471 21.1004 24 20.5033 24H1.49694C0.899846 24 0.456308 23.4471 0.585837 22.8642L0.719091 22.2646Z" fill="#0062FF"/>
</svg>
