<svg width="16" height="16" viewBox="0 0 16 16" fill="none" xmlns="http://www.w3.org/2000/svg">
<path d="M8.6501 0.999976C8.6501 0.640991 8.35908 0.349976 8.0001 0.349976C7.64111 0.349976 7.3501 0.640991 7.3501 0.999976L7.3501 7.34998H1.0001C0.641112 7.34998 0.350098 7.64099 0.350098 7.99998C0.350098 8.35896 0.641112 8.64998 1.0001 8.64998H7.3501L7.3501 15C7.3501 15.359 7.64111 15.65 8.0001 15.65C8.35908 15.65 8.6501 15.359 8.6501 15V8.64998H15.0001C15.3591 8.64998 15.6501 8.35896 15.6501 7.99998C15.6501 7.64099 15.3591 7.34998 15.0001 7.34998H8.6501V0.999976Z" fill="white"/>
</svg>
