<svg width="22" height="24" viewBox="0 0 22 24" fill="none" xmlns="http://www.w3.org/2000/svg">
<path fill-rule="evenodd" clip-rule="evenodd" d="M0.333496 4C0.333496 1.79086 2.12436 0 4.3335 0H12.9739C13.9902 0 14.9683 0.386803 15.7097 1.08185L20.4026 5.48145C21.2092 6.23764 21.6668 7.29396 21.6668 8.39959V20C21.6668 22.2091 19.876 24 17.6668 24H4.3335C2.12436 24 0.333499 22.2091 0.333497 20L0.333496 4ZM19.2069 7.99999C19.6226 7.99999 19.8308 7.49732 19.5368 7.20334L14.4635 2.12998C14.1695 1.836 13.6668 2.04421 13.6668 2.45996V6.09972C13.6668 7.14922 14.4644 8 15.4484 8L19.2069 7.99999ZM11.0003 8C11.4789 8 11.867 8.38802 11.867 8.86667V12H15.0003C15.4789 12 15.867 12.388 15.867 12.8667C15.867 13.3453 15.4789 13.7333 15.0003 13.7333H11.867V16.8667C11.867 17.3453 11.4789 17.7333 11.0003 17.7333C10.5216 17.7333 10.1336 17.3453 10.1336 16.8667V13.7333L7.00029 13.7333C6.52165 13.7333 6.13363 13.3453 6.13363 12.8667C6.13363 12.388 6.52165 12 7.00029 12H10.1336V8.86667C10.1336 8.38802 10.5216 8 11.0003 8Z" fill="#0062FF"/>
</svg>
