<svg width="24" height="24" viewBox="0 0 24 24" fill="none" xmlns="http://www.w3.org/2000/svg">
<path fill-rule="evenodd" clip-rule="evenodd" d="M0 12C0 5.37258 5.37258 0 12 0C18.6274 0 24 5.37258 24 12C24 18.6274 18.6274 24 12 24C5.37258 24 0 18.6274 0 12ZM12 5.33333C12.4786 5.33333 12.8667 5.72136 12.8667 6.2L12.8667 11.1333H17.8C18.2787 11.1333 18.6667 11.5214 18.6667 12C18.6667 12.4786 18.2787 12.8667 17.8 12.8667H12.8667L12.8667 17.8C12.8667 18.2786 12.4786 18.6667 12 18.6667C11.5214 18.6667 11.1333 18.2786 11.1333 17.8L11.1334 12.8667H6.2C5.72135 12.8667 5.33333 12.4786 5.33333 12C5.33333 11.5214 5.72135 11.1333 6.2 11.1333H11.1334L11.1333 6.2C11.1333 5.72136 11.5214 5.33333 12 5.33333Z" fill="#0062FF"/>
</svg>
