<svg width="121" height="120" viewBox="0 0 121 120" fill="none" xmlns="http://www.w3.org/2000/svg">
<path d="M38.8259 17.6746C37.7886 15.2419 38.8329 13.2957 41.0745 12.3365C42.0352 11.9264 42.8845 11.9055 42.8845 11.9055L43.4971 13.3374C43.0446 13.3374 42.3693 13.4416 41.7845 13.6919C40.4897 14.241 39.9258 15.3809 40.5872 16.9309C41.2624 18.5087 42.4807 18.8215 43.8173 18.2515C44.3881 18.0082 44.9103 17.6399 45.2235 17.3757L45.8222 18.7798C45.4532 19.0787 44.9311 19.4262 44.3116 19.6903C41.694 20.8024 39.7379 19.8015 38.8259 17.6746Z" fill="white"/>
<path d="M47.7437 10.279L49.5537 9.95928L50.0758 12.9064L50.6119 12.8091L51.8789 9.54919L53.8978 9.1947L52.2548 13.24L55.3806 16.8474L53.2851 17.2158L50.8555 14.2409L50.3264 14.3313L50.9112 17.6259L49.1012 17.9457L47.7437 10.279Z" fill="white"/>
<path d="M58.5969 9L61.2353 9.11816C63.2612 9.20852 64.1522 10.2233 64.0757 11.8011C63.9991 13.4137 63.0523 14.4077 60.9917 14.3104L60.1911 14.2756L60.0727 16.8613L58.2349 16.7779L58.5969 9ZM61.0056 12.8855C61.8062 12.9202 62.1821 12.4962 62.2169 11.7386C62.2517 11.0088 61.9106 10.5778 61.11 10.5431L60.3651 10.5083L60.2537 12.8507L61.0056 12.8855Z" fill="white"/>
<path d="M67.6331 13.6639C68.3014 11.2659 70 10.1607 72.2834 10.7933C74.6016 11.4397 75.437 13.2886 74.7757 15.6588C74.1074 18.0568 72.4087 19.1619 70.1253 18.5294C67.8141 17.876 66.9717 16.0271 67.6331 13.6639ZM72.9169 15.1375C73.2929 13.789 73.0353 12.5726 71.8727 12.246C70.6962 11.9193 69.8469 12.8715 69.4849 14.1783C69.1089 15.5267 69.3596 16.7292 70.5291 17.0559C71.7126 17.3825 72.5549 16.4442 72.9169 15.1375Z" fill="white"/>
<path d="M76.1816 20.434L76.8917 19.1481C76.9196 19.1898 76.9892 19.2524 77.0866 19.308C77.9151 19.7667 78.7296 18.3696 80.101 15.9021L81.0548 14.1923L86.1506 17.0143L82.3635 23.819L80.7554 22.9293L83.7837 17.4799L81.8345 16.4026L81.563 16.8891C79.6067 20.4062 78.4233 21.7755 76.7386 20.8441C76.488 20.7051 76.3348 20.573 76.1816 20.434Z" fill="white"/>
<path d="M90.4185 20.1003L91.8038 21.3028L90.0565 23.3116L90.5786 23.7634C92.1658 25.1466 92.2285 26.3907 91.1355 27.6488C90.1052 28.8304 88.7407 28.9556 87.2092 27.628L85.3018 25.9667L90.4185 20.1003ZM88.1421 26.5576C88.699 27.0372 89.242 26.9677 89.7223 26.4255C90.2096 25.8625 90.1957 25.3203 89.6457 24.8407L89.1236 24.3889L87.6269 26.1127L88.1421 26.5576Z" fill="white"/>
<path d="M97.3521 29.1641L96.099 27.5724L97.3243 26.6132L100.972 31.2493L99.7469 32.2154L98.4938 30.6237L93.5929 34.4744L92.4512 33.0217L97.3521 29.1641Z" fill="white"/>
<path d="M103.256 34.9053L105.504 38.9853L104.14 39.736L102.775 37.2616L101.467 37.9775L102.713 40.2504L101.404 40.9663L100.158 38.6934L98.675 39.5067L100.06 42.0298L98.6959 42.7804L96.4194 38.6517L103.256 34.9053Z" fill="white"/>
<path d="M109.11 48.9875L109.674 51.7887C109.98 53.3109 109.562 54.43 108.24 54.6941C107.321 54.8817 106.618 54.4786 106.186 53.6237L106.165 53.6306C106.186 54.4786 105.894 55.3961 104.71 55.6394C103.248 55.9313 102.364 54.9304 102.009 53.1858L101.473 50.5237L109.11 48.9875ZM103.381 52.7896C103.52 53.4847 103.84 53.8739 104.55 53.7349C105.246 53.5959 105.448 53.1371 105.295 52.3586L105.149 51.6497L103.227 52.0389L103.381 52.7896ZM106.492 52.0042C106.632 52.6784 106.966 53.0398 107.62 52.9147C108.198 52.7965 108.351 52.4282 108.219 51.7609L108.08 51.0658L106.374 51.4064L106.492 52.0042Z" fill="white"/>
<path d="M110.705 59.3372L110.684 61.1722L107.697 61.1374L107.662 63.876L110.649 63.9108L110.628 65.7458L102.831 65.6554L102.852 63.8204L106.103 63.8621L106.138 61.1235L102.887 61.0818L102.908 59.2468L110.705 59.3372Z" fill="white"/>
<path d="M109.959 71.1048L109.535 72.8356L105.608 71.8694L104.293 71.5219L104.279 71.5775L105.031 72.1961L108.88 75.4629L108.365 77.5482L100.791 75.6784L101.216 73.9477L105.121 74.9138L106.465 75.2683L106.479 75.2127L105.65 74.5246L101.863 71.3203L102.378 69.2351L109.959 71.1048Z" fill="white"/>
<path d="M99.8928 78.7505L101.271 79.4317C100.986 79.6888 100.366 80.2101 99.9416 81.072C99.496 81.9826 99.6213 82.5247 100.199 82.8097C100.728 83.0738 101.222 82.8931 101.724 81.8853L102.107 81.1068L103.388 81.7393L103.033 82.4552C102.587 83.3519 102.712 83.8523 103.207 84.0886C103.666 84.318 104.119 84.1512 104.522 83.338C104.856 82.6568 104.961 81.927 104.954 81.5516L106.304 82.2189C106.249 82.6846 106.11 83.4214 105.734 84.179C104.849 85.9653 103.666 86.3824 102.587 85.8541C101.8 85.4649 101.452 84.7281 101.612 83.8106L101.591 83.8037C100.986 84.6099 100.109 84.8741 99.2454 84.4501C98.0759 83.8732 97.6233 82.4622 98.5771 80.516C98.9878 79.6819 99.5378 79.0911 99.8928 78.7505Z" fill="white"/>
<path d="M96.1689 93.2427L89.6737 99.2899L88.7617 98.3098L95.257 92.2627L96.1689 93.2427Z" fill="white"/>
<path d="M82.4262 102.731C83.4634 105.163 82.4192 107.109 80.1775 108.069C79.2168 108.479 78.3675 108.5 78.3675 108.5L77.7549 107.068C78.2074 107.068 78.8827 106.964 79.4675 106.713C80.7623 106.164 81.3262 105.024 80.6649 103.474C79.9896 101.896 78.7713 101.584 77.4346 102.154C76.8638 102.397 76.3417 102.765 76.0284 103.029L75.4297 101.625C75.7987 101.326 76.3208 100.979 76.9404 100.715C79.558 99.5958 81.5142 100.604 82.4262 102.731Z" fill="white"/>
<path d="M73.5084 110.119L71.6984 110.439L71.1763 107.492L70.6402 107.589L69.3732 110.849L67.3543 111.203L69.0042 107.165L65.8784 103.558L67.9739 103.189L70.4035 106.164L70.9326 106.074L70.3478 102.779L72.1579 102.459L73.5084 110.119Z" fill="white"/>
<path d="M62.6552 111.398L60.0167 111.28C57.9909 111.189 57.0998 110.175 57.1764 108.597C57.253 106.984 58.1998 105.99 60.2604 106.088L61.061 106.122L61.1793 103.537L63.0172 103.62L62.6552 111.398ZM60.2465 107.513C59.4459 107.478 59.07 107.902 59.0352 108.659C59.0004 109.389 59.3415 109.82 60.1421 109.855L60.887 109.89L60.9983 107.547L60.2465 107.513Z" fill="white"/>
<path d="M53.6192 106.741C52.9509 109.139 51.2523 110.244 48.9689 109.612C46.6507 108.965 45.8153 107.116 46.4766 104.746C47.145 102.348 48.8436 101.243 51.127 101.876C53.4382 102.522 54.2806 104.371 53.6192 106.741ZM48.3354 105.268C47.9595 106.616 48.217 107.832 49.3796 108.159C50.5561 108.486 51.4055 107.534 51.7675 106.227C52.1434 104.878 51.8928 103.676 50.7232 103.349C49.5397 103.016 48.6974 103.961 48.3354 105.268Z" fill="white"/>
<path d="M45.0706 99.9641L44.3605 101.25C44.3326 101.208 44.263 101.146 44.1656 101.09C43.3371 100.631 42.5226 102.028 41.1512 104.496L40.1974 106.206L35.1016 103.384L38.8887 96.5791L40.4968 97.4688L37.4685 102.918L39.4177 103.996L39.6892 103.509C41.6455 99.9919 42.8289 98.6226 44.5136 99.554C44.7642 99.693 44.9174 99.832 45.0706 99.9641Z" fill="white"/>
<path d="M30.8341 100.305L29.4488 99.1023L31.1961 97.0935L30.674 96.6417C29.0868 95.2585 29.0241 94.0143 30.1171 92.7563C31.1474 91.5746 32.5118 91.4495 34.0434 92.7771L35.9509 94.4383L30.8341 100.305ZM33.1105 93.8406C32.5536 93.361 32.0106 93.4305 31.5303 93.9726C31.043 94.5356 31.0569 95.0778 31.6068 95.5574L32.129 96.0092L33.6257 94.2854L33.1105 93.8406Z" fill="white"/>
<path d="M23.9003 91.2341L25.1534 92.8258L23.9282 93.785L20.2803 89.1488L21.5055 88.1827L22.7586 89.7744L27.6596 85.9237L28.8013 87.3764L23.9003 91.2341Z" fill="white"/>
<path d="M17.9966 85.4927L15.748 81.4126L17.1125 80.662L18.477 83.1364L19.7858 82.4205L18.5396 80.1476L19.8484 79.4317L21.0945 81.7046L22.5773 80.8913L21.192 78.3682L22.5565 77.6176L24.8329 81.7463L17.9966 85.4927Z" fill="white"/>
<path d="M12.1419 71.4176L11.578 68.6164C11.2717 67.0942 11.6894 65.9751 13.012 65.711C13.931 65.5233 14.6341 65.9265 15.0657 66.7814L15.0866 66.7745C15.0657 65.9265 15.3581 65.009 16.5416 64.7657C18.0035 64.4738 18.8876 65.4747 19.2426 67.2193L19.7787 69.8814L12.1419 71.4176ZM14.7594 68.394C14.6202 67.7198 14.286 67.3583 13.6316 67.4834C13.0538 67.6016 12.9007 67.97 13.0329 68.6373L13.1722 69.3323L14.8777 68.9918L14.7594 68.394ZM17.8712 67.6086C17.732 66.9135 17.4118 66.5242 16.7017 66.6633C16.0055 66.8023 15.8036 67.261 15.9568 68.0395L16.103 68.7485L18.0244 68.3592L17.8712 67.6086Z" fill="white"/>
<path d="M10.5479 61.0679L10.5687 59.2329L13.5553 59.2676L13.5901 56.529L10.6035 56.4943L10.6244 54.6593L18.4214 54.7497L18.4006 56.5846L15.1495 56.5429L15.1147 59.2815L18.3658 59.3232L18.3449 61.1582L10.5479 61.0679Z" fill="white"/>
<path d="M11.293 49.2934L11.7176 47.5627L15.6439 48.5288L16.9597 48.8764L16.9736 48.8208L16.2217 48.2022L12.372 44.9353L12.8872 42.8501L20.4613 44.7198L20.0367 46.4506L16.1243 45.4914L14.7807 45.1369L14.7668 45.1925L15.5952 45.8806L19.3823 49.0849L18.8671 51.1701L11.293 49.2934Z" fill="white"/>
<path d="M21.3594 41.6546L19.981 40.9734C20.2664 40.7162 20.886 40.1949 21.3106 39.333C21.7562 38.4225 21.6309 37.8803 21.0531 37.5954C20.524 37.3312 20.0297 37.5119 19.5285 38.5198L19.1456 39.2983L17.8647 38.6658L18.2197 37.9498C18.6652 37.0532 18.5399 36.5527 18.0457 36.3164C17.5862 36.087 17.1337 36.2539 16.7299 37.0671C16.3958 37.7483 16.2913 38.4781 16.2983 38.8534L14.9478 38.1862C15.0034 37.7205 15.1427 36.9837 15.5186 36.2261C16.4027 34.4397 17.5862 34.0227 18.6652 34.5509C19.4519 34.9402 19.8 35.677 19.6399 36.5945L19.6607 36.6014C20.2664 35.7951 21.1436 35.531 22.0068 35.955C23.1763 36.5319 23.6288 37.9429 22.6751 39.8891C22.2644 40.7232 21.7144 41.307 21.3594 41.6546Z" fill="white"/>
<path d="M25.0835 27.1553L31.5787 21.1082L32.4907 22.0882L25.9955 28.1353L25.0835 27.1553Z" fill="white"/>
<path d="M67.1372 60C67.1372 63.5891 64.2229 66.5 60.6262 66.5C57.0296 66.5 54.1152 63.5891 54.1152 60C54.1152 56.4109 57.0296 53.5 60.6262 53.5C64.2229 53.5 67.1372 56.4109 67.1372 60Z" stroke="white"/>
</svg>
