<svg width="24" height="24" viewBox="0 0 24 24" fill="none" xmlns="http://www.w3.org/2000/svg">
<path d="M9.76765 12.4682H13.3381C14.8272 12.4682 16.0343 11.2611 16.0343 9.772C16.0343 8.28292 14.8272 7.07578 13.3381 7.07578H9.76765V12.4682Z" fill="#0062FF"/>
<path fill-rule="evenodd" clip-rule="evenodd" d="M12 24C18.6274 24 24 18.6274 24 12C24 5.37258 18.6274 0 12 0C5.37258 0 0 5.37258 0 12C0 18.6274 5.37258 24 12 24ZM8.03432 6.20911C8.03432 5.73047 8.42234 5.34245 8.90099 5.34245H13.3381C15.7845 5.34245 17.7677 7.32562 17.7677 9.772C17.7677 12.2184 15.7845 14.2015 13.3381 14.2015H9.76765V15.5994H13.7941C14.2727 15.5994 14.6607 15.9874 14.6607 16.466C14.6607 16.9447 14.2727 17.3327 13.7941 17.3327H9.76765V18.4631C9.76765 18.9417 9.37963 19.3297 8.90099 19.3297C8.42234 19.3297 8.03432 18.9417 8.03432 18.4631V17.3327H7.09909C6.62044 17.3327 6.23242 16.9447 6.23242 16.466C6.23242 15.9874 6.62044 15.5994 7.09909 15.5994H8.03432V14.2015H7.1069C6.62825 14.2015 6.24023 13.8135 6.24023 13.3349C6.24023 12.8562 6.62825 12.4682 7.1069 12.4682H8.03432V6.20911Z" fill="#0062FF"/>
</svg>
