<svg width="37" height="36" viewBox="0 0 37 36" fill="none" xmlns="http://www.w3.org/2000/svg">
<path d="M30.5782 27.6608C30.1271 28.2218 30.1436 29.0443 30.6667 29.5389C31.1868 30.0308 32.0109 30.0122 32.4662 29.4598C35.0233 26.358 36.5591 22.3828 36.5591 18.049C36.5591 8.13486 28.5221 0.0979004 18.608 0.0979004C8.69394 0.0979004 0.656982 8.13486 0.656982 18.049C0.656982 22.3633 2.17902 26.3222 4.71544 29.418C5.17061 29.9735 5.9978 29.9928 6.51895 29.4986C7.03979 29.0047 7.05701 28.1854 6.60894 27.6247C4.51118 24.9994 3.25698 21.6707 3.25698 18.049C3.25698 9.5708 10.1299 2.6979 18.608 2.6979C27.0862 2.6979 33.9591 9.5708 33.9591 18.049C33.9591 21.6873 32.6933 25.03 30.5782 27.6608Z" fill="#0062FF"/>
<path d="M27.9566 25.2013C27.522 25.7685 26.6971 25.7852 26.1779 25.2942C25.654 24.7988 25.6425 23.976 26.063 23.3903C27.1426 21.8861 27.7782 20.0418 27.7782 18.049C27.7782 12.9844 23.6726 8.87881 18.608 8.87881C13.5435 8.87881 9.43783 12.9844 9.43783 18.049C9.43783 20.0234 10.0618 21.8521 11.1233 23.3485C11.5385 23.9338 11.5251 24.7517 11.0044 25.2454C10.4831 25.7397 9.65313 25.7214 9.21939 25.1487C7.72462 23.1752 6.83783 20.7156 6.83783 18.049C6.83783 11.5485 12.1075 6.27881 18.608 6.27881C25.1085 6.27881 30.3782 11.5485 30.3782 18.049C30.3782 20.7393 29.4756 23.2189 27.9566 25.2013Z" fill="#0062FF"/>
<path d="M23.5837 17.9138C23.5837 20.216 22.0278 22.1548 19.9101 22.736V34.6873C19.9101 35.4053 19.3281 35.9873 18.6101 35.9873C17.8921 35.9873 17.3101 35.4053 17.3101 34.6873V22.7502C15.1656 22.1869 13.5837 20.2351 13.5837 17.9138C13.5837 15.1524 15.8223 12.9138 18.5837 12.9138C21.3452 12.9138 23.5837 15.1524 23.5837 17.9138Z" fill="#0062FF"/>
</svg>
