<svg width="14" height="15" viewBox="0 0 14 15" fill="none" xmlns="http://www.w3.org/2000/svg">
<path d="M7.98267 4.87419C7.87334 4.77149 7.81003 4.63197 7.81096 4.47277C7.81924 4.17184 8.06532 3.93424 8.36018 3.93682L10.1538 3.92331L10.1625 3.91397C9.28852 3.23656 8.19135 2.83334 7 2.83334C4.14653 2.83334 1.83333 5.14653 1.83333 8.00001C1.83333 8.1535 1.84003 8.30544 1.85314 8.45553C1.87741 8.73341 1.71656 9.0017 1.44939 9.08185C1.14137 9.17426 0.818361 8.98213 0.784676 8.66231C0.761753 8.44468 0.75 8.22371 0.75 8.00001C0.75 4.54823 3.54822 1.75001 7 1.75001C8.47021 1.75001 9.82185 2.25764 10.8892 3.1072L10.7338 1.41018C10.7067 1.11036 10.9346 0.855634 11.2344 0.828583C11.5285 0.807606 11.7889 1.02939 11.816 1.32922L12.0558 4.37231C12.0843 4.71925 11.8104 5.01079 11.4624 5.00397L8.34691 5.02199C8.19948 5.0207 8.07985 4.96548 7.98267 4.87419Z" fill="#3A85FF"/>
<path d="M5.57521 10.7447C5.68453 10.8474 5.74784 10.9869 5.74692 11.1461C5.73863 11.447 5.49255 11.6846 5.1977 11.682L3.40407 11.6955L3.39702 11.7031C4.32775 12.6088 5.59873 13.1667 7 13.1667C9.85347 13.1667 12.1667 10.8535 12.1667 8.00001C12.1667 7.68164 12.1379 7.37 12.0827 7.06754C12.0314 6.78582 12.1757 6.49671 12.4449 6.39885C12.7393 6.29177 13.0655 6.45424 13.1273 6.76142C13.2078 7.16176 13.25 7.57595 13.25 8.00001C13.25 11.4518 10.4518 14.25 7 14.25C5.31819 14.25 3.79153 13.5857 2.66808 12.5052L2.82411 14.2087C2.85116 14.5085 2.6233 14.7632 2.32348 14.7903C2.02936 14.8112 1.76893 14.5895 1.74188 14.2896L1.5021 11.2465C1.47358 10.8996 1.74746 10.6081 2.0955 10.6149L5.21097 10.5969C5.3584 10.5981 5.47803 10.6534 5.57521 10.7447Z" fill="#3A85FF"/>
</svg>
