<svg width="40" height="40" viewBox="0 0 40 40" fill="none" xmlns="http://www.w3.org/2000/svg">
<path d="M23.4377 22.6916C23.4377 23.023 23.1691 23.2916 22.8377 23.2916L17.2376 23.2916C16.9062 23.2916 16.6376 23.023 16.6376 22.6916L16.6376 17.0915C16.6376 16.7601 16.9062 16.4915 17.2376 16.4915L22.8377 16.4915C23.1691 16.4915 23.4377 16.7601 23.4377 17.0915V22.6916Z" fill="#0062FF"/>
<path fill-rule="evenodd" clip-rule="evenodd" d="M18.7378 1.89131V7.89131L15.3378 7.8915V3.89127C15.3378 3.1733 14.7558 2.59127 14.0378 2.59127C13.3198 2.59127 12.7378 3.1733 12.7378 3.89127V8.03271C10.4676 8.53416 8.68032 10.3215 8.17891 12.5917L4.03776 12.5917C3.31979 12.5917 2.73776 13.1737 2.73776 13.8917C2.73776 14.6097 3.31979 15.1917 4.03776 15.1917H8.03774L8.03774 18.5917L2.03779 18.5917C1.31982 18.5917 0.737793 19.1737 0.737793 19.8917C0.737793 20.6097 1.31982 21.1917 2.03779 21.1917H8.03774L8.03774 24.5917H4.03776C3.31979 24.5917 2.73776 25.1737 2.73776 25.8917C2.73776 26.6097 3.31979 27.1917 4.03776 27.1917H8.179C8.68052 29.4617 10.4677 31.2489 12.7378 31.7503V35.8913C12.7378 36.6093 13.3198 37.1913 14.0378 37.1913C14.7558 37.1913 15.3378 36.6093 15.3378 35.8913L15.3378 31.8915H18.7378V37.8913C18.7378 38.6093 19.3198 39.1913 20.0378 39.1913C20.7558 39.1913 21.3378 38.6093 21.3378 37.8913V31.8915H24.7378V35.8913C24.7378 36.6093 25.3198 37.1913 26.0378 37.1913C26.7558 37.1913 27.3378 36.6093 27.3378 35.8913V31.7503C29.6078 31.2488 31.395 29.4617 31.8965 27.1917H36.0378C36.7558 27.1917 37.3378 26.6097 37.3378 25.8917C37.3378 25.1737 36.7558 24.5917 36.0378 24.5917L32.0377 24.5917L32.0378 21.1917H38.0378C38.7558 21.1917 39.3378 20.6097 39.3378 19.8917C39.3378 19.1737 38.7558 18.5917 38.0378 18.5917H32.0377V15.1917L36.0378 15.1917C36.7558 15.1917 37.3378 14.6097 37.3378 13.8917C37.3378 13.1737 36.7558 12.5917 36.0378 12.5917L31.8966 12.5917C31.3952 10.3215 29.608 8.53422 27.3378 8.03273V3.89127C27.3378 3.1733 26.7558 2.59127 26.0378 2.59127C25.3198 2.59127 24.7378 3.1733 24.7378 3.89127V7.8915L21.3378 7.89131V1.89131C21.3378 1.17334 20.7558 0.591309 20.0378 0.591309C19.3198 0.591309 18.7378 1.17334 18.7378 1.89131ZM26.0377 24.6916C26.0377 25.3543 25.5005 25.8916 24.8377 25.8916H15.2376C14.5749 25.8916 14.0376 25.3543 14.0376 24.6916L14.0376 15.0915C14.0376 14.4287 14.5749 13.8915 15.2376 13.8915L24.8377 13.8915C25.5005 13.8915 26.0377 14.4287 26.0377 15.0915V24.6916Z" fill="#0062FF"/>
</svg>
