<svg width="1014" height="20" viewBox="0 0 1014 20" fill="none" xmlns="http://www.w3.org/2000/svg">
<path d="M13.7238 9.49996L1013.29 9.5L1013.29 10.4999L13.7238 10.4999L13.7238 9.49996Z" fill="#0062FF" stroke="white"/>
<path d="M13.2252 10C13.2252 11.6554 11.8807 13 10.2189 13C8.55712 13 7.21265 11.6554 7.21265 10C7.21265 8.34462 8.55712 7 10.2189 7C11.8807 7 13.2252 8.34462 13.2252 10Z" fill="white" stroke="white" stroke-width="2"/>
<path d="M224.556 10C224.556 13.3122 221.866 16 218.545 16C215.223 16 212.534 13.3122 212.534 10C212.534 6.68776 215.223 4 218.545 4C221.866 4 224.556 6.68776 224.556 10Z" fill="#0736C9" stroke="white" stroke-width="2"/>
<path d="M429.876 10C429.876 11.6554 428.532 13 426.87 13C425.208 13 423.864 11.6554 423.864 10C423.864 8.34462 425.208 7 426.87 7C428.532 7 429.876 8.34462 429.876 10Z" fill="white" stroke="white" stroke-width="2"/>
<path d="M638.202 10C638.202 11.6554 636.858 13 635.196 13C633.534 13 632.189 11.6554 632.189 10C632.189 8.34463 633.534 7 635.196 7C636.858 7 638.202 8.34463 638.202 10Z" fill="white" stroke="white" stroke-width="2"/>
<path d="M846.527 10C846.527 11.6554 845.183 13 843.521 13C841.859 13 840.515 11.6554 840.515 10C840.515 8.34463 841.859 7 843.521 7C845.183 7 846.527 8.34463 846.527 10Z" fill="white" stroke="white" stroke-width="2"/>
</svg>
